<?xml version="1.0" encoding="iso-8859-1"?>
<!-- Uploaded to: SVG Repo, www.svgrepo.com, Generator: SVG Repo Mixer Tools -->
<svg fill="#000000" height="800px" width="800px" version="1.1" id="Layer_1" xmlns="http://www.w3.org/2000/svg" xmlns:xlink="http://www.w3.org/1999/xlink" 
	 viewBox="0 0 512.001 512.001" xml:space="preserve">
<g>
	<g>
		<path d="M255.977,28.085c-0.563,0-1.125,0.011-1.675,0.031c-4.65,0.177-8.275,4.091-8.096,8.741
			c0.177,4.65,4.11,8.278,8.741,8.097c0.338-0.013,0.684-0.019,1.03-0.019c14.241,0,25.827,11.579,25.827,25.81
			c0,5.949-1.973,11.532-5.705,16.142c-2.928,3.616-2.369,8.922,1.247,11.849c1.56,1.263,3.434,1.877,5.296,1.877
			c2.456,0,4.89-1.067,6.554-3.124c6.189-7.643,9.459-16.891,9.459-26.744C298.654,47.222,279.51,28.085,255.977,28.085z"/>
	</g>
</g>
<g>
	<g>
		<path d="M393.625,228.748h-37.845c-5.426-12.065-12.945-22.945-22.405-32.406c-8.247-8.246-17.706-15.088-28.115-20.337
			c-5.972-3.011-9.682-9.023-9.682-15.689c0-16.785,5.488-32.823,15.445-45.155c10.134-12.519,15.716-28.292,15.716-44.415
			c0-19.404-7.701-37.504-21.684-50.966c-13.983-13.46-32.361-20.47-51.84-19.727c-35.933,1.385-65.728,30.565-67.831,66.427
			c-1.018,17.238,4.243,34.187,14.812,47.719c10.614,13.609,16.224,29.414,16.224,45.704v0.391c0,6.598-3.648,12.684-9.292,15.506
			c-22.677,11.334-40.559,30.007-50.892,52.949h-37.863c-18.926,0-34.323,15.397-34.323,34.323
			c0,18.926,15.397,34.323,34.323,34.323h81.499c-33.341,20.334-55.648,57.049-55.648,98.877
			c0,63.813,51.916,115.729,115.729,115.729s115.728-51.915,115.728-115.729c0-41.828-22.306-78.543-55.648-98.877h73.59
			c18.926,0,34.323-15.397,34.323-34.323C427.948,244.146,412.551,228.748,393.625,228.748z M214.664,190.872
			c11.305-5.651,18.608-17.653,18.608-30.579v-0.391c0-20.081-6.843-39.469-19.791-56.07c-8.047-10.304-12.051-23.216-11.273-36.362
			c1.601-27.307,24.292-49.523,51.653-50.578c14.843-0.566,28.855,4.774,39.507,15.029c10.652,10.255,16.519,24.044,16.519,38.826
			c0,12.454-4.137,24.146-11.969,33.821c-12.378,15.326-19.193,35.125-19.193,55.749c0,13.067,7.26,24.845,18.948,30.737
			c8.806,4.44,16.808,10.227,23.784,17.203c6.154,6.154,11.336,13.014,15.488,20.492H175.058
			C184.073,212.507,197.808,199.297,214.664,190.872z M358.832,396.271c0,54.521-44.356,98.878-98.877,98.878
			s-98.878-44.356-98.878-98.878c0-45.788,31.287-84.402,73.605-95.599v17.263c-33.891,10.849-57.023,42.157-57.023,78.342
			c0,45.374,36.919,82.288,82.299,82.288c45.38,0,82.299-36.914,82.299-82.288c0-36.181-23.13-67.49-57.023-78.34v-17.262
			C327.549,311.873,358.832,350.485,358.832,396.271z M259.959,363.575c13.937,0,25.276-11.338,25.276-25.276v-2.427
			c24.103,10.002,40.172,33.51,40.172,60.406c0,36.082-29.36,65.437-65.448,65.437s-65.448-29.355-65.448-65.437
			c0-26.898,16.069-50.405,40.172-60.406v2.428C234.683,352.235,246.021,363.575,259.959,363.575z M251.534,338.298v-40.542
			c2.777-0.235,5.586-0.363,8.422-0.363c2.839,0,5.649,0.127,8.429,0.363v40.542c0,4.646-3.779,8.425-8.425,8.425
			C255.313,346.724,251.534,342.945,251.534,338.298z M393.625,280.543h-275.25c-9.634,0-17.472-7.838-17.472-17.472
			c0-9.634,7.838-17.472,17.472-17.472h43.449h188.351h43.449c9.634,0,17.472,7.838,17.472,17.472
			C411.097,272.705,403.259,280.543,393.625,280.543z"/>
	</g>
</g>
</svg>